<?xml version="1.0" encoding="UTF-8" standalone="no"?>
<!-- Created with Inkscape (http://www.inkscape.org/) -->

<svg
   width="312.34061mm"
   height="164.58502mm"
   viewBox="0 0 312.34061 164.58502"
   version="1.1"
   id="svg5"
   xml:space="preserve"
   inkscape:version="1.2.1 (9c6d41e, 2022-07-14)"
   sodipodi:docname="Chef Herrera Logo.svg"
   xmlns:inkscape="http://www.inkscape.org/namespaces/inkscape"
   xmlns:sodipodi="http://sodipodi.sourceforge.net/DTD/sodipodi-0.dtd"
   xmlns="http://www.w3.org/2000/svg"
   xmlns:svg="http://www.w3.org/2000/svg"><sodipodi:namedview
     id="namedview7"
     pagecolor="#ffffff"
     bordercolor="#ffffff"
     borderopacity="0.25"
     inkscape:showpageshadow="2"
     inkscape:pageopacity="0.0"
     inkscape:pagecheckerboard="0"
     inkscape:deskcolor="#d1d1d1"
     inkscape:document-units="mm"
     showgrid="false"
     inkscape:zoom="0.32535081"
     inkscape:cx="706.92925"
     inkscape:cy="56.8617"
     inkscape:window-width="1728"
     inkscape:window-height="1051"
     inkscape:window-x="0"
     inkscape:window-y="38"
     inkscape:window-maximized="0"
     inkscape:current-layer="layer1" /><defs
     id="defs2" /><g
     inkscape:label="Layer 1"
     inkscape:groupmode="layer"
     id="layer1"
     transform="translate(72.68011,-209.1891)"><path
       style="fill:#ffffff;stroke-width:0.264583"
       d="m -72.500259,373.59408 -0.179851,-0.17986 v -0.60527 -0.60527 l 1.785938,-0.0782 1.785938,-0.0782 0.06708,-36.6286 0.06708,-36.6286 -0.331665,-0.21058 -0.331664,-0.21057 -1.358204,-0.004 -1.358204,-0.004 -0.128553,-0.49159 -0.128553,-0.49158 0.243133,-0.43446 0.243133,-0.43445 h 8.689796 8.689795 l 0.160599,0.41851 0.1606,0.41852 v 0.50753 0.50752 h -1.571885 -1.571886 l -0.139594,0.22587 -0.139593,0.22587 -0.02555,10.82048 -0.02555,10.82049 h 6.433384 6.433387 v -10.98021 -10.98021 l -1.669437,-0.0792 -1.669438,-0.0792 0.08194,-0.84686 0.08194,-0.84686 8.699731,-0.0698 8.69973,-0.0698 0.375018,0.31123 0.375015,0.31124 -0.07891,0.55232 -0.07892,0.55232 -1.719791,0.13229 -1.719792,0.13229 -0.06707,36.84323 -0.06707,36.84323 h 1.705102 1.705102 l 0.164984,0.26695 0.164986,0.26695 -0.168296,0.53025 -0.168297,0.53025 -9.021193,-0.0696 -9.021194,-0.0696 -0.04461,-0.60651 -0.04461,-0.60652 0.256024,-0.15823 0.256024,-0.15823 1.486521,-0.029 1.486522,-0.029 0.0678,-20.1791 0.0678,-20.17911 -6.486959,0.0708 -6.486961,0.0708 -0.0075,19.95232 -0.0075,19.95232 0.208933,0.207 0.208933,0.20701 1.455208,0.0813 1.455208,0.0813 v 0.66146 0.66146 l -8.882128,0.0696 -8.882129,0.0696 -0.179851,-0.17985 z m 49.093317,-5.18489 0.07162,-5.35781 17.3150463,-0.0681 17.3150477,-0.0681 0.247973,0.24797 0.247973,0.24798 -0.02162,4.97948 -0.02162,4.97948 -0.01275,0.19843 -0.01276,0.19844 H -5.8782957 -23.478565 Z m 40.156002,4.57615 v -0.78166 l 1.785937,-0.0782 1.785938,-0.0782 0.06708,-36.6286 0.06708,-36.6286 -0.331663,-0.21058 -0.331666,-0.21057 -1.521354,-0.004 -1.521354,-0.004 v -0.78871 -0.78871 l 0.595312,-0.14411 0.595313,-0.14411 18.785418,0.0729 18.78542,0.0729 v 17.4625 17.4625 l -2.84427,0.0751 -2.84427,0.0751 0.006,0.58637 0.006,0.58636 0.52009,3.43958 0.5201,3.43958 0.92503,6.35 0.92502,6.35 0.65624,4.63021 0.65623,4.63021 0.26285,1.5875 0.26285,1.5875 0.40648,2.77812 0.40648,2.77813 0.0675,0.79375 0.0675,0.79375 1.78594,0.0782 1.78593,0.0782 v 0.78166 0.78166 h -8.99583 -8.99583 v -0.79375 -0.79375 h 1.57188 1.57189 l 0.14485,-0.23438 0.14486,-0.23439 -1.18176,-8.29843 -1.18177,-8.29842 -0.27408,-1.5875 -0.27409,-1.5875 -0.39001,-3.04271 -0.39001,-3.04271 -0.29413,-1.98438 -0.29412,-1.98437 -0.35088,-2.11667 -0.35089,-2.11666 -0.31258,-2.64584 -0.31259,-2.64583 -0.0956,-0.33073 -0.0956,-0.33073 h -3.71412 -3.71412 l 0.0678,20.17448 0.0678,20.17448 1.78594,0.0782 1.78594,0.0782 v 0.78166 0.78166 h -9.128128 -9.128125 v -0.78166 z m 27.781251,-58.88188 v -6.48229 h -6.61458 -6.61459 v 6.48229 6.48229 h 6.61459 6.61458 z m 17.9281,59.0083 -0.12526,-0.65524 0.13851,-0.13851 0.13851,-0.13851 h 1.5151 1.51509 l 0.1606,-0.41851 0.1606,-0.41852 v -36.33026 -36.33026 l -0.41852,-0.1606 -0.41851,-0.1606 h -1.31804 -1.31804 l 0.0829,-0.85989 0.0829,-0.8599 18.65312,-0.0729 18.65313,-0.0729 0.597209,0.14459 0.59722,0.1446 -0.068,17.39083 -0.068,17.39084 -2.844269,0.0751 -2.84427,0.0751 v 0.13041 0.1304 l 0.78467,5.61534 0.78466,5.61533 0.27381,1.5875 0.27381,1.5875 0.65966,4.89479 0.65966,4.89479 0.27241,1.32292 0.27242,1.32291 0.52181,3.96875 0.521799,3.96875 0.27033,1.71979 0.27034,1.7198 0.20345,0.92604 0.20345,0.92604 1.71021,0.13229 1.71022,0.13229 v 0.66146 0.66146 l -9.061979,0.0696 -9.06198,0.0696 v -0.79722 -0.79723 h 1.71979 1.71979 v -0.56254 -0.56254 l -0.39127,-2.41402 -0.39128,-2.41402 -0.55408,-3.96875 -0.55409,-3.96875 -0.65281,-4.63021 -0.65281,-4.63021 -0.2547,-1.71979 -0.25469,-1.71979 -0.25825,-1.64003 -0.25825,-1.64004 -0.40248,-2.99017 -0.40248,-2.99018 -0.27035,-1.85208 -0.27036,-1.85209 -0.14429,-0.46302 -0.1443,-0.46302 h -3.55404 -3.55405 v 20.24063 20.24062 h 1.71979 1.71979 v 0.79375 0.79375 h -8.96498 -8.965 z m 27.71253,-59.0083 v -6.35 l -6.54844,-0.0708 -6.54844,-0.0708 v 6.49154 6.49154 l 6.54844,-0.0708 6.54844,-0.0708 z m 21.477219,59.48903 -0.17827,-0.17827 v -4.93007 -4.93007 l 0.3175,-0.3175 0.3175,-0.3175 h 17.12939 17.12939 l 0.13281,0.2149 0.13282,0.2149 0.0476,5.14292 0.0476,5.14291 -17.44901,0.068 -17.449,0.068 z m 40.13408,-0.22236 -0.15229,-0.39688 0.15229,-0.39687 0.1523,-0.39688 h 1.72902 1.72902 l -0.0671,-36.84323 -0.0671,-36.84323 -1.71979,-0.13229 -1.7198,-0.13229 -0.0789,-0.55232 -0.0789,-0.55232 0.37273,-0.30934 0.37273,-0.30934 19.02077,0.0679 19.02076,0.0679 v 17.4625 17.4625 l -2.84427,0.0751 -2.84427,0.0751 v 0.21474 0.21474 l 0.67016,4.47267 0.67014,4.47266 1.07286,7.40833 1.07283,7.40834 0.52054,3.43958 0.52054,3.43958 0.22591,1.7198 0.22587,1.71979 0.42635,2.74591 0.42635,2.74592 0.14256,0.23064 0.14253,0.23065 h 1.57189 1.57189 v 0.79375 0.79375 h -8.99584 -8.99583 v -0.79375 -0.79375 h 1.5958 1.59581 l 0.153,-0.39871 0.153,-0.39872 -0.69871,-4.69451 -0.69871,-4.69452 -0.37975,-2.64583 -0.37975,-2.64583 -0.2621,-1.71979 -0.2621,-1.7198 -0.38813,-2.91041 -0.38814,-2.91042 -0.96659,-6.61458 -0.9666,-6.61459 -0.18126,-1.19062 -0.18127,-1.19063 h -3.7009 -3.70089 l -0.0729,19.57917 -0.0729,19.57917 0.14407,0.59531 0.14408,0.59531 h 1.69914 1.69913 l 0.13515,0.21867 0.13514,0.21867 -0.15039,0.57508 -0.15038,0.57508 h -8.97328 -8.97328 z m 27.68557,-59.27129 v -6.48692 l -6.54843,0.0708 -6.54844,0.0708 -0.0713,6.07969 -0.0713,6.07969 0.12911,0.33646 0.12911,0.33645 h 6.4906 6.49059 z m 17.82411,59.27477 -0.15364,-0.40036 0.15229,-0.39687 0.15229,-0.39688 h 1.7281 1.7281 v -37.51792 -37.51791 l 0.3175,-0.3175 0.3175,-0.3175 16.94657,0.004 16.94656,0.004 0.3298,0.20944 0.32983,0.20944 0.067,37.55578 0.0671,37.55578 1.71979,0.13229 1.71979,0.1323 v 0.66145 0.66146 h -8.99583 -8.99583 v -0.66146 -0.66145 l 1.71979,-0.1323 1.71979,-0.13229 v -20.10833 -20.10833 h -6.48229 -6.48229 v 20.10833 20.10833 l 1.71783,0.13229 1.71781,0.1323 0.003,0.66145 0.003,0.66146 -9.06894,0.0696 -9.06896,0.0696 -0.15362,-0.40036 z m 27.81652,-59.27015 v -6.35 h -6.48229 -6.48229 l -0.0713,6.07969 -0.0712,6.07969 0.13091,0.34117 0.13092,0.34118 6.42265,-0.0709 6.42263,-0.0709 z m -251.970674,41.70526 -0.351914,-0.22309 0.08733,-0.76505 0.08733,-0.76504 1.787154,-0.0783 1.787155,-0.0783 -0.06736,-27.70299 -0.06736,-27.70299 -1.717418,-0.13229 -1.717416,-0.13229 -0.09037,-0.47573 -0.09037,-0.47573 0.318828,-0.38417 0.318828,-0.38416 H -7.5758267 11.426162 l 0.16301,0.26376 0.163012,0.26375 0.08524,6.71764 0.08524,6.71763 -0.16649,0.25899 -0.166489,0.25899 -0.529166,0.16191 -0.529167,0.16191 -0.315741,-0.19875 -0.3157427,-0.19874 -0.08113,-1.58115 -0.08113,-1.58115 H -1.3748987 -12.4874 v 6.35 6.35 h 5.8208343 5.82083302 l 0.07877,-1.65365 0.07877,-1.65364 h 0.913419 0.91341498 v 9.14489 9.14489 l -0.85989498,-0.0829 -0.859896,-0.0829 -0.07835,-1.79097 -0.07835,-1.79097 -5.87477402,0.0712 -5.8747773,0.0712 v 6.48229 6.4823 h 11.1125013 11.1125 l 0.07877,-1.65365 0.07877,-1.65365 h 0.9134177 0.913416 l 0.03696,1.25678 0.03696,1.25677 -0.01569,5.74552 -0.01569,5.74552 -0.169185,0.27375 -0.169185,0.27375 -18.9682417,-0.004 -18.9682393,-0.004 -0.351917,-0.22309 z m 134.947184,-0.0846 -0.31922,-0.31922 v -0.42334 -0.42333 l 0.3175,-0.3175 0.3175,-0.3175 h 1.5358 1.5358 l -0.0674,-27.7151 -0.0674,-27.71511 -1.71979,-0.13229 -1.71979,-0.13229 -0.0789,-0.55232 -0.0789,-0.55232 0.37273,-0.30934 0.37273,-0.30934 19.02077,0.0679 19.02077,0.0679 0.0703,7.17998 0.0703,7.17998 -0.33492,0.12744 -0.33493,0.12744 -0.59531,-0.22129 -0.59531,-0.22129 v -1.5989 -1.5989 l -11.17865,0.069 -11.17865,0.069 -0.0747,5.82083 -0.0748,5.82084 0.14724,0.60045 0.14723,0.60046 5.74835,-0.0713 5.74836,-0.0713 0.0788,-1.65365 0.0788,-1.65364 h 0.91342 0.91342 v 9.14489 9.14489 l -0.8599,-0.0829 -0.8599,-0.0829 -0.0782,-1.78594 -0.0782,-1.78594 h -5.7779 -5.77789 l -0.15953,0.59531 -0.15954,0.59532 -0.004,5.60075 -0.004,5.60076 0.1606,0.41851 0.1606,0.41852 h 11.0842 11.08419 v -1.71979 -1.7198 h 0.93029 0.9303 l -0.0704,7.2099 -0.0704,7.2099 -19.0615,0.0679 -19.06151,0.0679 -0.31922,-0.31923 z M -0.71344068,247.69304 V 209.19617 H 16.87848 34.470401 l 0.069,11.17865 0.069,11.17864 1.7198,0.13229 1.71979,0.13229 0.0829,0.8599 0.0829,0.8599 h -7.29281 -7.292805 v -6.74688 -6.74687 h -6.614583 -6.614584 v 27.65358 27.65358 l 6.548438,-0.0708 6.548438,-0.0708 0.132291,-15.61042 0.132292,-15.61042 h 7.143753 7.14375 v 0.79375 0.79375 l -1.71979,0.1323 -1.7198,0.13229 -0.0678,20.17448 -0.0678,20.17448 H 16.879698 -0.71344068 Z m 40.31370168,38.10353 -0.15365,-0.4004 0.14732,-0.38391 0.14732,-0.3839 1.66692,-0.0791 1.66693,-0.0791 v -36.77712 -36.77708 l -1.71979,-0.13229 -1.71979,-0.13229 -0.0841,-0.7311 -0.0841,-0.7311 9.07989,0.0696 9.07989,0.0696 v 0.66146 0.66146 l -1.71979,0.13229 -1.71979,0.13229 v 11.1125 11.1125 l 6.54844,0.0708 6.54844,0.0708 V 222.04569 210.8089 l -1.65365,-0.0788 -1.65365,-0.0788 -0.084,-0.7311 -0.0841,-0.7311 9.07989,0.0696 9.07989,0.0696 v 0.66146 0.66146 l -1.71979,0.13229 -1.71979,0.13229 v 36.77709 36.77708 l 1.71979,0.13229 1.71979,0.13229 v 0.66146 0.66146 h -8.99583 -8.99584 v -0.66146 -0.66146 l 1.58751,-0.13229 1.5875,-0.13229 V 264.36163 244.2533 l -6.33136,-0.071 -6.33136,-0.0711 -0.21303,0.33563 -0.21303,0.33563 -0.004,19.61292 -0.004,19.61291 0.33875,0.28114 0.33875,0.28113 1.44718,0.082 1.44719,0.082 v 0.66146 0.66146 l -8.93664,0.0697 -8.93663,0.0697 -0.15365,-0.4004 z m 49.17613,-4.96446 0.0716,-5.35782 h 17.462499 17.4625 l 0.0716,5.35782 0.0716,5.35781 H 106.31044 88.704691 Z m 40.253039,4.96446 -0.15365,-0.4004 0.14707,-0.38327 0.14708,-0.38327 1.53488,-0.0798 1.53488,-0.0798 0.0671,-36.84323 0.0671,-36.84323 h -1.57281 -1.57281 l -0.16499,-0.26695 -0.16498,-0.26695 0.1672,-0.5268 0.1672,-0.5268 h 19.30107 19.30108 l -0.0705,7.0776 -0.0705,7.07761 h -0.79375 -0.79375 l -0.0788,-1.65365 -0.0788,-1.65364 h -11.08204 -11.08205 l -0.16644,0.5244 -0.16643,0.5244 0.0719,5.83374 0.0719,5.83374 0.16182,0.26184 0.16183,0.26184 5.66959,-0.0715 5.66959,-0.0716 0.13229,-1.71979 0.13229,-1.71979 0.63154,-0.0893 0.63153,-0.0893 0.23178,0.35388 0.23178,0.35387 -0.034,8.45848 -0.034,8.45847 -0.13006,0.33892 -0.13006,0.33892 h -0.76544 -0.76544 v -1.69148 -1.69148 l -0.41852,-0.1606 -0.41851,-0.1606 h -5.26072 -5.26072 l -0.27389,0.51177 -0.27389,0.51177 v 19.43187 19.43188 l 0.33875,0.28114 0.33875,0.28113 1.44719,0.082 1.44718,0.082 v 0.66146 0.66146 l -8.93663,0.0697 -8.93664,0.0697 z m -43.820979,-17.79675 -0.0989,-0.19844 0.0502,-0.33073 0.0502,-0.33073 0.0331,-0.25196 0.0331,-0.25196 1.65365,-0.0788 1.65365,-0.0788 V 238.69715 210.9159 l -1.65365,-0.0788 -1.65365,-0.0788 v -0.78112 -0.78113 h 19.318909 19.31891 l -0.0705,7.07761 -0.0705,7.0776 -0.63154,0.0893 -0.63153,0.0893 -0.22431,-0.35388 -0.22431,-0.35388 -0.004,-1.38906 -0.004,-1.38906 h -11.1125 -11.112499 v 6.61974 6.61974 l 5.754689,-0.0713 5.75468,-0.0713 0.13229,-1.71979 0.1323,-1.71979 h 0.79375 0.79375 v 8.99583 8.99584 h -0.79375 -0.79375 l -0.1323,-1.71979 -0.13229,-1.7198 h -5.68854 -5.688539 l -0.0708,6.54844 -0.0708,6.54844 h 11.117129 11.11712 l 0.004,-1.52135 0.004,-1.52136 0.22431,-0.35388 0.22431,-0.35387 0.63154,0.0893 0.63153,0.0893 0.0704,7.20989 0.0704,7.2099 H 104.61049 85.307261 l -0.0989,-0.19844 z"
       id="path377" /></g></svg>
